# xmcd
#
# Track frame offsets:
#	150
#	16737
#	31436
#	50110
#	65878
#	84755
#	103236
#	122230
#	137786
#	154152
#	169606
#	185158
#	204728
#	225656
#	240347
#
# Disc length: 3438 seconds
#
# Revision: 0
# Processed by: cddbd v1.5.1PL0 Copyright (c) Steve Scherf et al.
# Submitted via: audiograbber 1.83.01
#
DISCID=d00d6c0f
DTITLE=V - CB60173
DYEAR=1900
DGENRE=Karaoke Country
TTITLE0=Joe Diffie - Night To Remember, A
TTITLE1=Shane Minor - Slave To The Habit
TTITLE2=Reba McEntire - One Honest Heart
TTITLE3=Confederate Railroad, The - Cowboy Cadillac
TTITLE4=Martina McBride - Whatever You Say
TTITLE5=Tractors, The - I Wouldn't Tell You No Lie
TTITLE6=Michael Peterson - Somethin' 'Bout A Sunday
TTITLE7=Linda Davis - From The Inside OUt
TTITLE8=Jon Randall - Cold Coffee Morning
TTITLE9=Great Divide, the - San Isabella
TTITLE10=Chely Wright - Single White Female
TTITLE11=Kenny Chesney - She Thinks My Tractor's Sexy
TTITLE12=Tim McGraw - Please Remember Me
TTITLE13=Wilkinsons, The - Boy Oh Boy
TTITLE14=Diamond Rio - I Know How The River Feels
EXTD=Chartbuster
EXTT0=
EXTT1=
EXTT2=
EXTT3=
EXTT4=
EXTT5=
EXTT6=
EXTT7=
EXTT8=
EXTT9=
EXTT10=
EXTT11=
EXTT12=
EXTT13=
EXTT14=
PLAYORDER=
